<svg width="17" height="20" viewBox="0 0 17 20" fill="none" xmlns="http://www.w3.org/2000/svg">
<path d="M8.00001 12H15.5M5.42401 6.268L10.423 1.269M12.633 15.644L10.231 18.059C9.93456 18.3571 9.58211 18.5937 9.19391 18.7551C8.80571 18.9166 8.38944 18.9997 7.96901 18.9997C7.54859 18.9997 7.13231 18.9166 6.74411 18.7551C6.35592 18.5937 6.00346 18.3571 5.70701 18.059L1.93701 14.272C1.33685 13.6681 1 12.8514 1 12C1 11.1486 1.33685 10.3318 1.93701 9.728L5.70701 5.941C6.00346 5.64288 6.35592 5.4063 6.74411 5.24486C7.13231 5.08343 7.54859 5.00032 7.96901 5.00032C8.38944 5.00032 8.80571 5.08343 9.19391 5.24486C9.58211 5.4063 9.93456 5.64288 10.231 5.941L12.533 8.254" stroke="black" stroke-width="2" stroke-linecap="round" stroke-linejoin="round"/>
</svg>
